<?xml version="1.0" encoding="us-ascii" standalone="no"?><svg xmlns="http://www.w3.org/2000/svg" xmlns:xlink="http://www.w3.org/1999/xlink" contentStyleType="text/css" height="250px" preserveAspectRatio="none" style="width:390px;height:250px;background:#FFFFFF;" version="1.1" viewBox="0 0 390 250" width="390px" zoomAndPan="magnify"><defs/><g><!--cluster mirante.api.exercise.option--><g id="cluster_mirante.api.exercise.option"><path d="M8.5,6.602 L199.5,6.602 A3.75,3.75 0 0 1 202,9.102 L209,31.6699 L380.5,31.6699 A2.5,2.5 0 0 1 383,34.1699 L383,220.102 A2.5,2.5 0 0 1 380.5,222.602 L8.5,222.602 A2.5,2.5 0 0 1 6,220.102 L6,9.102 A2.5,2.5 0 0 1 8.5,6.602 " fill="none" style="stroke:#000000;stroke-width:1.5;"/><line style="stroke:#000000;stroke-width:1.5;" x1="6" x2="209" y1="31.6699" y2="31.6699"/><text fill="#000000" font-family="sans-serif" font-size="14" font-weight="bold" lengthAdjust="spacing" textLength="190" x="10" y="23.5679">mirante.api.exercise.option</text></g><!--class Option--><a href="Option.html" target="_top" title="Option.html" xlink:actuate="onRequest" xlink:href="Option.html" xlink:show="new" xlink:title="Option.html" xlink:type="simple"><g id="elem_Option"><rect codeLine="5" fill="#F1F1F1" height="162.4075" id="Option" rx="2.5" ry="2.5" style="stroke:#181818;stroke-width:0.5;" width="174" x="193" y="44.602"/><ellipse cx="252.75" cy="60.602" fill="#ADD1B2" rx="11" ry="11" style="stroke:#181818;stroke-width:1.0;"/><path d="M252.2188,67.5239 Q250.4688,67.5239 249.3281,66.7895 Q248.2031,66.0395 247.6406,64.6957 Q247.0938,63.3364 247.0938,61.5395 Q247.0938,59.5082 247.75,58.0551 Q248.4063,56.602 249.6875,55.8207 Q250.9688,55.0395 252.8438,55.0395 Q253.7344,55.0395 254.4063,55.227 Q255.0781,55.3989 255.7656,55.7426 L254.9531,57.7582 Q254.3281,57.4457 253.7813,57.3207 Q253.25,57.1957 252.7656,57.1957 Q251.5938,57.1957 250.8906,57.727 Q250.1875,58.2582 249.8906,59.2114 Q249.5938,60.1645 249.5938,61.4301 Q249.5938,63.4457 250.3125,64.4145 Q251.0313,65.3676 252.625,65.3676 Q253.2188,65.3676 253.8438,65.2114 Q254.4688,65.0551 255.2969,64.6801 L255.2969,66.8989 Q254.5625,67.2114 253.7656,67.3676 Q252.9844,67.5239 252.2188,67.5239 Z " fill="#000000"/><text fill="#000000" font-family="sans-serif" font-size="14" lengthAdjust="spacing" textLength="46" x="273.25" y="66.034">Option</text><line style="stroke:#181818;stroke-width:0.5;" x1="194" x2="366" y1="76.602" y2="76.602"/><line style="stroke:#181818;stroke-width:0.5;" x1="194" x2="366" y1="84.602" y2="84.602"/><ellipse cx="204" cy="99.6359" fill="#84BE84" rx="3" ry="3" style="stroke:#038048;stroke-width:1.0;"/><text fill="#000000" font-family="sans-serif" font-size="14" lengthAdjust="spacing" textLength="93" x="213" y="103.5679">getId(): String</text><ellipse cx="204" cy="118.7039" fill="#84BE84" rx="3" ry="3" style="stroke:#038048;stroke-width:1.0;"/><text fill="#000000" font-family="sans-serif" font-size="14" lengthAdjust="spacing" textLength="132" x="213" y="122.6358">getContent(): String</text><ellipse cx="204" cy="137.7718" fill="#84BE84" rx="3" ry="3" style="stroke:#038048;stroke-width:1.0;"/><text fill="#000000" font-family="sans-serif" font-size="14" lengthAdjust="spacing" textLength="123" x="213" y="141.7038">getPlace(): Integer</text><ellipse cx="204" cy="156.8397" fill="#84BE84" rx="3" ry="3" style="stroke:#038048;stroke-width:1.0;"/><text fill="#000000" font-family="sans-serif" font-size="14" lengthAdjust="spacing" textLength="141" x="213" y="160.7717">getCorrect(): Boolean</text><ellipse cx="204" cy="175.9076" fill="#84BE84" rx="3" ry="3" style="stroke:#038048;stroke-width:1.0;"/><text fill="#000000" font-family="sans-serif" font-size="14" lengthAdjust="spacing" textLength="148" x="213" y="179.8396">getExercise(): Exercise</text><ellipse cx="204" cy="194.9755" fill="#84BE84" rx="3" ry="3" style="stroke:#038048;stroke-width:1.0;"/><text fill="#000000" font-family="sans-serif" font-size="14" lengthAdjust="spacing" textLength="148" x="213" y="198.9075">getExerciseId(): String</text></g></a><!--class OptionDTO--><a href="OptionDTO.html" target="_top" title="OptionDTO.html" xlink:actuate="onRequest" xlink:href="OptionDTO.html" xlink:show="new" xlink:title="OptionDTO.html" xlink:type="simple"><g id="elem_OptionDTO"><rect codeLine="14" fill="#F1F1F1" height="143.3396" id="OptionDTO" rx="2.5" ry="2.5" style="stroke:#181818;stroke-width:0.5;" width="135" x="22.5" y="54.102"/><ellipse cx="50.1" cy="70.102" fill="#ADD1B2" rx="11" ry="11" style="stroke:#181818;stroke-width:1.0;"/><path d="M49.5688,77.0239 Q47.8188,77.0239 46.6781,76.2895 Q45.5531,75.5395 44.9906,74.1957 Q44.4438,72.8364 44.4438,71.0395 Q44.4438,69.0082 45.1,67.5551 Q45.7563,66.102 47.0375,65.3207 Q48.3188,64.5395 50.1938,64.5395 Q51.0844,64.5395 51.7563,64.727 Q52.4281,64.8989 53.1156,65.2426 L52.3031,67.2582 Q51.6781,66.9457 51.1313,66.8207 Q50.6,66.6957 50.1156,66.6957 Q48.9438,66.6957 48.2406,67.227 Q47.5375,67.7582 47.2406,68.7114 Q46.9438,69.6645 46.9438,70.9301 Q46.9438,72.9457 47.6625,73.9145 Q48.3813,74.8676 49.975,74.8676 Q50.5688,74.8676 51.1938,74.7114 Q51.8188,74.5551 52.6469,74.1801 L52.6469,76.3989 Q51.9125,76.7114 51.1156,76.8676 Q50.3344,77.0239 49.5688,77.0239 Z " fill="#000000"/><text fill="#000000" font-family="sans-serif" font-size="14" lengthAdjust="spacing" textLength="75" x="66.9" y="75.534">OptionDTO</text><line style="stroke:#181818;stroke-width:0.5;" x1="23.5" x2="156.5" y1="86.102" y2="86.102"/><ellipse cx="33.5" cy="101.1359" fill="none" rx="3" ry="3" style="stroke:#038048;stroke-width:1.0;"/><text fill="#000000" font-family="sans-serif" font-size="14" lengthAdjust="spacing" textLength="62" x="42.5" y="105.0679">id: String</text><ellipse cx="33.5" cy="120.2039" fill="none" rx="3" ry="3" style="stroke:#038048;stroke-width:1.0;"/><text fill="#000000" font-family="sans-serif" font-size="14" lengthAdjust="spacing" textLength="100" x="42.5" y="124.1358">content: String</text><ellipse cx="33.5" cy="139.2718" fill="none" rx="3" ry="3" style="stroke:#038048;stroke-width:1.0;"/><text fill="#000000" font-family="sans-serif" font-size="14" lengthAdjust="spacing" textLength="94" x="42.5" y="143.2038">place: Integer</text><ellipse cx="33.5" cy="158.3397" fill="none" rx="3" ry="3" style="stroke:#038048;stroke-width:1.0;"/><text fill="#000000" font-family="sans-serif" font-size="14" lengthAdjust="spacing" textLength="109" x="42.5" y="162.2717">correct: Boolean</text><ellipse cx="33.5" cy="177.4076" fill="none" rx="3" ry="3" style="stroke:#038048;stroke-width:1.0;"/><text fill="#000000" font-family="sans-serif" font-size="14" lengthAdjust="spacing" textLength="104" x="42.5" y="181.3396">exercise: String</text><line style="stroke:#181818;stroke-width:0.5;" x1="23.5" x2="156.5" y1="189.4416" y2="189.4416"/></g></a><text fill="#888888" font-family="sans-serif" font-size="10" lengthAdjust="spacing" textLength="182" x="97" y="239.292">UMLDoclet 2.1.1, PlantUML 1.2023.12</text><!--SRC=[VP91IuCn38Rl-nMv21jAOHw_eyx3GDb0FOqTGXS_YrrRqZ04sNytNPq8Qmsq3SbBqYSj040cqPMGKIB3C4mc6eI4zWD7WhrZ3486apFqIMnT9XEJk1ZWgqgBMOyvmwh6Dvlgc7VP- -rMTV37haUIvMuw6-1Ps8Nn8daVjM6GVnHhZvPAVgdAaRXHWfdigSHTZ9umN4WUVc2AvkntHStx7jluYvVLxmJKxmp1xTfqjiAtawbmTwXjHUu0dv-k1t4yxLOx4yDRZELuVNfSHElrUzoQkPdVW8uzY4RXwa2S5Myw-mO0]--></g></svg>