<?xml version="1.0" encoding="us-ascii" standalone="no"?><svg xmlns="http://www.w3.org/2000/svg" xmlns:xlink="http://www.w3.org/1999/xlink" contentStyleType="text/css" height="453px" preserveAspectRatio="none" style="width:553px;height:453px;background:#FFFFFF;" version="1.1" viewBox="0 0 553 453" width="553px" zoomAndPan="magnify"><defs/><g><!--cluster mirante.api.exercise.set--><g id="cluster_mirante.api.exercise.set"><path d="M8.5,6.602 L174.5,6.602 A3.75,3.75 0 0 1 177,9.102 L184,31.6699 L543.5,31.6699 A2.5,2.5 0 0 1 546,34.1699 L546,423.102 A2.5,2.5 0 0 1 543.5,425.602 L8.5,425.602 A2.5,2.5 0 0 1 6,423.102 L6,9.102 A2.5,2.5 0 0 1 8.5,6.602 " fill="none" style="stroke:#000000;stroke-width:1.5;"/><line style="stroke:#000000;stroke-width:1.5;" x1="6" x2="184" y1="31.6699" y2="31.6699"/><text fill="#000000" font-family="sans-serif" font-size="14" font-weight="bold" lengthAdjust="spacing" textLength="165" x="10" y="23.5679">mirante.api.exercise.set</text></g><!--class Access--><a href="Access.html" target="_top" title="Access.html" xlink:actuate="onRequest" xlink:href="Access.html" xlink:show="new" xlink:title="Access.html" xlink:type="simple"><g id="elem_Access"><rect codeLine="5" fill="#F1F1F1" height="105.2038" id="Access" rx="2.5" ry="2.5" style="stroke:#181818;stroke-width:0.5;" width="81" x="197.5" y="304.602"/><ellipse cx="214.3" cy="320.602" fill="#EB937F" rx="11" ry="11" style="stroke:#181818;stroke-width:1.0;"/><path d="M210.6594,327.102 L210.6594,314.9614 L218.3156,314.9614 L218.3156,317.0864 L213.0344,317.0864 L213.0344,319.7426 L218.05,319.7426 L218.05,321.8676 L213.0344,321.8676 L213.0344,324.977 L218.3156,324.977 L218.3156,327.102 L210.6594,327.102 Z " fill="#000000"/><text fill="#000000" font-family="sans-serif" font-size="14" lengthAdjust="spacing" textLength="45" x="228.7" y="326.034">Access</text><line style="stroke:#181818;stroke-width:0.5;" x1="198.5" x2="277.5" y1="336.602" y2="336.602"/><ellipse cx="208.5" cy="351.6359" fill="none" rx="3" ry="3" style="stroke:#038048;stroke-width:1.0;"/><text fill="#000000" font-family="sans-serif" font-size="14" lengthAdjust="spacing" text-decoration="underline" textLength="55" x="217.5" y="355.5679">PRIVATE</text><ellipse cx="208.5" cy="370.7039" fill="none" rx="3" ry="3" style="stroke:#038048;stroke-width:1.0;"/><text fill="#000000" font-family="sans-serif" font-size="14" lengthAdjust="spacing" text-decoration="underline" textLength="48" x="217.5" y="374.6358">PUBLIC</text><ellipse cx="208.5" cy="389.7718" fill="none" rx="3" ry="3" style="stroke:#038048;stroke-width:1.0;"/><text fill="#000000" font-family="sans-serif" font-size="14" lengthAdjust="spacing" text-decoration="underline" textLength="55" x="217.5" y="393.7038">COURSE</text><line style="stroke:#181818;stroke-width:0.5;" x1="198.5" x2="277.5" y1="401.8057" y2="401.8057"/></g></a><!--class ExerciseSetDTO--><a href="ExerciseSetDTO.html" target="_top" title="ExerciseSetDTO.html" xlink:actuate="onRequest" xlink:href="ExerciseSetDTO.html" xlink:show="new" xlink:title="ExerciseSetDTO.html" xlink:type="simple"><g id="elem_ExerciseSetDTO"><rect codeLine="11" fill="#F1F1F1" height="105.2038" id="ExerciseSetDTO" rx="2.5" ry="2.5" style="stroke:#181818;stroke-width:0.5;" width="217" x="312.5" y="82.602"/><ellipse cx="364.25" cy="98.602" fill="#ADD1B2" rx="11" ry="11" style="stroke:#181818;stroke-width:1.0;"/><path d="M363.7188,105.5239 Q361.9688,105.5239 360.8281,104.7895 Q359.7031,104.0395 359.1406,102.6957 Q358.5938,101.3364 358.5938,99.5395 Q358.5938,97.5082 359.25,96.0551 Q359.9063,94.602 361.1875,93.8207 Q362.4688,93.0395 364.3438,93.0395 Q365.2344,93.0395 365.9063,93.227 Q366.5781,93.3989 367.2656,93.7426 L366.4531,95.7582 Q365.8281,95.4457 365.2813,95.3207 Q364.75,95.1957 364.2656,95.1957 Q363.0938,95.1957 362.3906,95.727 Q361.6875,96.2582 361.3906,97.2114 Q361.0938,98.1645 361.0938,99.4301 Q361.0938,101.4457 361.8125,102.4145 Q362.5313,103.3676 364.125,103.3676 Q364.7188,103.3676 365.3438,103.2114 Q365.9688,103.0551 366.7969,102.6801 L366.7969,104.8989 Q366.0625,105.2114 365.2656,105.3676 Q364.4844,105.5239 363.7188,105.5239 Z " fill="#000000"/><text fill="#000000" font-family="sans-serif" font-size="14" lengthAdjust="spacing" textLength="105" x="384.75" y="104.034">ExerciseSetDTO</text><line style="stroke:#181818;stroke-width:0.5;" x1="313.5" x2="528.5" y1="114.602" y2="114.602"/><ellipse cx="323.5" cy="129.6359" fill="none" rx="3" ry="3" style="stroke:#038048;stroke-width:1.0;"/><text fill="#000000" font-family="sans-serif" font-size="14" lengthAdjust="spacing" textLength="62" x="332.5" y="133.5679">id: String</text><ellipse cx="323.5" cy="148.7039" fill="none" rx="3" ry="3" style="stroke:#038048;stroke-width:1.0;"/><text fill="#000000" font-family="sans-serif" font-size="14" lengthAdjust="spacing" textLength="87" x="332.5" y="152.6358">name: String</text><ellipse cx="323.5" cy="167.7718" fill="none" rx="3" ry="3" style="stroke:#038048;stroke-width:1.0;"/><text fill="#000000" font-family="sans-serif" font-size="14" lengthAdjust="spacing" textLength="191" x="332.5" y="171.7038">exercises: Set&lt;ExerciseDTO&gt;</text><line style="stroke:#181818;stroke-width:0.5;" x1="313.5" x2="528.5" y1="179.8057" y2="179.8057"/></g></a><!--class ExerciseSet--><a href="ExerciseSet.html" target="_top" title="ExerciseSet.html" xlink:actuate="onRequest" xlink:href="ExerciseSet.html" xlink:show="new" xlink:title="ExerciseSet.html" xlink:type="simple"><g id="elem_ExerciseSet"><rect codeLine="17" fill="#F1F1F1" height="181.4754" id="ExerciseSet" rx="2.5" ry="2.5" style="stroke:#181818;stroke-width:0.5;" width="255" x="22.5" y="44.602"/><ellipse cx="107.75" cy="60.602" fill="#ADD1B2" rx="11" ry="11" style="stroke:#181818;stroke-width:1.0;"/><path d="M107.2188,67.5239 Q105.4688,67.5239 104.3281,66.7895 Q103.2031,66.0395 102.6406,64.6957 Q102.0938,63.3364 102.0938,61.5395 Q102.0938,59.5082 102.75,58.0551 Q103.4063,56.602 104.6875,55.8207 Q105.9688,55.0395 107.8438,55.0395 Q108.7344,55.0395 109.4063,55.227 Q110.0781,55.3989 110.7656,55.7426 L109.9531,57.7582 Q109.3281,57.4457 108.7813,57.3207 Q108.25,57.1957 107.7656,57.1957 Q106.5938,57.1957 105.8906,57.727 Q105.1875,58.2582 104.8906,59.2114 Q104.5938,60.1645 104.5938,61.4301 Q104.5938,63.4457 105.3125,64.4145 Q106.0313,65.3676 107.625,65.3676 Q108.2188,65.3676 108.8438,65.2114 Q109.4688,65.0551 110.2969,64.6801 L110.2969,66.8989 Q109.5625,67.2114 108.7656,67.3676 Q107.9844,67.5239 107.2188,67.5239 Z " fill="#000000"/><text fill="#000000" font-family="sans-serif" font-size="14" lengthAdjust="spacing" textLength="76" x="128.25" y="66.034">ExerciseSet</text><line style="stroke:#181818;stroke-width:0.5;" x1="23.5" x2="276.5" y1="76.602" y2="76.602"/><line style="stroke:#181818;stroke-width:0.5;" x1="23.5" x2="276.5" y1="84.602" y2="84.602"/><ellipse cx="33.5" cy="99.6359" fill="#84BE84" rx="3" ry="3" style="stroke:#038048;stroke-width:1.0;"/><text fill="#000000" font-family="sans-serif" font-size="14" lengthAdjust="spacing" textLength="84" x="42.5" y="103.5679">ExerciseSet()</text><ellipse cx="33.5" cy="118.7039" fill="#84BE84" rx="3" ry="3" style="stroke:#038048;stroke-width:1.0;"/><text fill="#000000" font-family="sans-serif" font-size="14" lengthAdjust="spacing" textLength="125" x="42.5" y="122.6358">ExerciseSet(String)</text><ellipse cx="33.5" cy="137.7718" fill="#84BE84" rx="3" ry="3" style="stroke:#038048;stroke-width:1.0;"/><text fill="#000000" font-family="sans-serif" font-size="14" lengthAdjust="spacing" textLength="229" x="42.5" y="141.7038">ExerciseSet(String, String, Course)</text><ellipse cx="33.5" cy="156.8397" fill="#84BE84" rx="3" ry="3" style="stroke:#038048;stroke-width:1.0;"/><text fill="#000000" font-family="sans-serif" font-size="14" lengthAdjust="spacing" textLength="119" x="42.5" y="160.7717">setId(String): void</text><ellipse cx="33.5" cy="175.9076" fill="#84BE84" rx="3" ry="3" style="stroke:#038048;stroke-width:1.0;"/><text fill="#000000" font-family="sans-serif" font-size="14" lengthAdjust="spacing" textLength="93" x="42.5" y="179.8396">getId(): String</text><ellipse cx="33.5" cy="194.9755" fill="#84BE84" rx="3" ry="3" style="stroke:#038048;stroke-width:1.0;"/><text fill="#000000" font-family="sans-serif" font-size="14" lengthAdjust="spacing" textLength="145" x="42.5" y="198.9075">setName(String): void</text><ellipse cx="33.5" cy="214.0434" fill="#84BE84" rx="3" ry="3" style="stroke:#038048;stroke-width:1.0;"/><text fill="#000000" font-family="sans-serif" font-size="14" lengthAdjust="spacing" textLength="119" x="42.5" y="217.9754">getName(): String</text></g></a><!--link ExerciseSetDTO to Access--><g id="link_ExerciseSetDTO_Access"><path codeLine="29" d="M378.09,187.682 C348.09,223.752 312.1069,267.0091 282.5869,302.4991 " fill="none" id="ExerciseSetDTO-to-Access" style="stroke:#181818;stroke-width:1.0;"/><polygon fill="#181818" points="278.75,307.112,287.5806,302.7506,281.9474,303.2679,281.4301,297.6348,278.75,307.112" style="stroke:#181818;stroke-width:1.0;"/><text fill="#000000" font-family="sans-serif" font-size="13" lengthAdjust="spacing" textLength="38" x="319" y="270.499">access</text></g><!--link ExerciseSet to Access--><g id="link_ExerciseSet_Access"><path codeLine="30" d="M185.92,225.902 C196.61,252.632 205.7433,275.4405 215.1033,298.8605 " fill="none" id="ExerciseSet-to-Access" style="stroke:#181818;stroke-width:1.0;"/><polygon fill="#181818" points="217.33,304.432,217.7043,294.5902,215.4744,299.7891,210.2756,297.5592,217.33,304.432" style="stroke:#181818;stroke-width:1.0;"/><text fill="#000000" font-family="sans-serif" font-size="13" lengthAdjust="spacing" textLength="38" x="205" y="270.499">access</text></g><text fill="#888888" font-family="sans-serif" font-size="10" lengthAdjust="spacing" textLength="182" x="178.5" y="442.292">UMLDoclet 2.1.1, PlantUML 1.2023.12</text><!--SRC=[bLBFQy8m5BxxLxpBmA86t34CmLKF1JV5wYxY8QHlNLZRb2JAGFpVzsejMhNJ1S8Bx_kHZvS005Xqj7DXXDC6E6-rg0cvaDyYHaYL4Pb39dB5y0UDL1PP8TcLl69XjabXA2LQ2wjLUM1VBatMQwB1sTfP9voIU-ZCvi77S35kGfUlay1l0FtfSXwUbFjJ49a8YZ0-nWpHZHPJIbHlt4xMKH67q1cLnVL-9bAyZLJZi0IZUwbkeIi63uMh9sk8TSPeUyrGcUykeGjLzVN6MBmGqBi6KUN5OQjLL2V41u9tUnwaVgTXtT4VADSEnq4TIzElu_pYSNkzmH_ayYjo48VwkFF_RIKIrS2draLPlar6MYPazCpwhD-5MK9Mr8MdBHghTDRsVW40]--></g></svg>