<?xml version="1.0" encoding="us-ascii" standalone="no"?><svg xmlns="http://www.w3.org/2000/svg" xmlns:xlink="http://www.w3.org/1999/xlink" contentStyleType="text/css" height="422px" preserveAspectRatio="none" style="width:605px;height:422px;background:#FFFFFF;" version="1.1" viewBox="0 0 605 422" width="605px" zoomAndPan="magnify"><defs/><g><!--cluster mirante.api.exercise--><g id="cluster_mirante.api.exercise"><path d="M8.5,6.602 L149.5,6.602 A3.75,3.75 0 0 1 152,9.102 L159,31.6699 L595.5,31.6699 A2.5,2.5 0 0 1 598,34.1699 L598,239.102 A2.5,2.5 0 0 1 595.5,241.602 L8.5,241.602 A2.5,2.5 0 0 1 6,239.102 L6,9.102 A2.5,2.5 0 0 1 8.5,6.602 " fill="none" style="stroke:#000000;stroke-width:1.5;"/><line style="stroke:#000000;stroke-width:1.5;" x1="6" x2="159" y1="31.6699" y2="31.6699"/><text fill="#000000" font-family="sans-serif" font-size="14" font-weight="bold" lengthAdjust="spacing" textLength="140" x="10" y="23.5679">mirante.api.exercise</text></g><!--cluster mirante.api.exercise.option--><g id="cluster_mirante.api.exercise.option"><path d="M308.5,292.602 L499.5,292.602 A3.75,3.75 0 0 1 502,295.102 L509,317.6699 L555.5,317.6699 A2.5,2.5 0 0 1 558,320.1699 L558,392.102 A2.5,2.5 0 0 1 555.5,394.602 L308.5,394.602 A2.5,2.5 0 0 1 306,392.102 L306,295.102 A2.5,2.5 0 0 1 308.5,292.602 " fill="none" style="stroke:#000000;stroke-width:1.5;"/><line style="stroke:#000000;stroke-width:1.5;" x1="306" x2="509" y1="317.6699" y2="317.6699"/><text fill="#000000" font-family="sans-serif" font-size="14" font-weight="bold" lengthAdjust="spacing" textLength="190" x="310" y="309.5679">mirante.api.exercise.option</text></g><!--class Exercise--><a href="Exercise.html" target="_top" title="Exercise.html" xlink:actuate="onRequest" xlink:href="Exercise.html" xlink:show="new" xlink:title="Exercise.html" xlink:type="simple"><g id="elem_Exercise"><rect codeLine="5" fill="#F1F1F1" height="181.4754" id="Exercise" rx="2.5" ry="2.5" style="stroke:#181818;stroke-width:0.5;" width="188" x="211" y="44.602"/><ellipse cx="273.25" cy="60.602" fill="#ADD1B2" rx="11" ry="11" style="stroke:#181818;stroke-width:1.0;"/><path d="M272.7188,67.5239 Q270.9688,67.5239 269.8281,66.7895 Q268.7031,66.0395 268.1406,64.6957 Q267.5938,63.3364 267.5938,61.5395 Q267.5938,59.5082 268.25,58.0551 Q268.9063,56.602 270.1875,55.8207 Q271.4688,55.0395 273.3438,55.0395 Q274.2344,55.0395 274.9063,55.227 Q275.5781,55.3989 276.2656,55.7426 L275.4531,57.7582 Q274.8281,57.4457 274.2813,57.3207 Q273.75,57.1957 273.2656,57.1957 Q272.0938,57.1957 271.3906,57.727 Q270.6875,58.2582 270.3906,59.2114 Q270.0938,60.1645 270.0938,61.4301 Q270.0938,63.4457 270.8125,64.4145 Q271.5313,65.3676 273.125,65.3676 Q273.7188,65.3676 274.3438,65.2114 Q274.9688,65.0551 275.7969,64.6801 L275.7969,66.8989 Q275.0625,67.2114 274.2656,67.3676 Q273.4844,67.5239 272.7188,67.5239 Z " fill="#000000"/><text fill="#000000" font-family="sans-serif" font-size="14" lengthAdjust="spacing" textLength="55" x="293.75" y="66.034">Exercise</text><line style="stroke:#181818;stroke-width:0.5;" x1="212" x2="398" y1="76.602" y2="76.602"/><line style="stroke:#181818;stroke-width:0.5;" x1="212" x2="398" y1="84.602" y2="84.602"/><ellipse cx="222" cy="99.6359" fill="#84BE84" rx="3" ry="3" style="stroke:#038048;stroke-width:1.0;"/><text fill="#000000" font-family="sans-serif" font-size="14" lengthAdjust="spacing" textLength="63" x="231" y="103.5679">Exercise()</text><ellipse cx="222" cy="118.7039" fill="#84BE84" rx="3" ry="3" style="stroke:#038048;stroke-width:1.0;"/><text fill="#000000" font-family="sans-serif" font-size="14" lengthAdjust="spacing" textLength="104" x="231" y="122.6358">Exercise(String)</text><ellipse cx="222" cy="137.7718" fill="#84BE84" rx="3" ry="3" style="stroke:#038048;stroke-width:1.0;"/><text fill="#000000" font-family="sans-serif" font-size="14" lengthAdjust="spacing" textLength="153" x="231" y="141.7038">Exercise(String, String)</text><ellipse cx="222" cy="156.8397" fill="#84BE84" rx="3" ry="3" style="stroke:#038048;stroke-width:1.0;"/><text fill="#000000" font-family="sans-serif" font-size="14" lengthAdjust="spacing" textLength="162" x="231" y="160.7717">addOption(Option): void</text><ellipse cx="222" cy="175.9076" fill="#84BE84" rx="3" ry="3" style="stroke:#038048;stroke-width:1.0;"/><text fill="#000000" font-family="sans-serif" font-size="14" lengthAdjust="spacing" textLength="93" x="231" y="179.8396">getId(): String</text><ellipse cx="222" cy="194.9755" fill="#84BE84" rx="3" ry="3" style="stroke:#038048;stroke-width:1.0;"/><text fill="#000000" font-family="sans-serif" font-size="14" lengthAdjust="spacing" textLength="153" x="231" y="198.9075">getInstruction(): String</text><ellipse cx="222" cy="214.0434" fill="#84BE84" rx="3" ry="3" style="stroke:#038048;stroke-width:1.0;"/><text fill="#000000" font-family="sans-serif" font-size="14" lengthAdjust="spacing" textLength="114" x="231" y="217.9754">getSetId(): String</text></g></a><!--class ExerciseDTO--><a href="ExerciseDTO.html" target="_top" title="ExerciseDTO.html" xlink:actuate="onRequest" xlink:href="ExerciseDTO.html" xlink:show="new" xlink:title="ExerciseDTO.html" xlink:type="simple"><g id="elem_ExerciseDTO"><rect codeLine="15" fill="#F1F1F1" height="105.2038" id="ExerciseDTO" rx="2.5" ry="2.5" style="stroke:#181818;stroke-width:0.5;" width="148" x="434" y="82.602"/><ellipse cx="463.4" cy="98.602" fill="#ADD1B2" rx="11" ry="11" style="stroke:#181818;stroke-width:1.0;"/><path d="M462.8688,105.5239 Q461.1188,105.5239 459.9781,104.7895 Q458.8531,104.0395 458.2906,102.6957 Q457.7438,101.3364 457.7438,99.5395 Q457.7438,97.5082 458.4,96.0551 Q459.0563,94.602 460.3375,93.8207 Q461.6188,93.0395 463.4938,93.0395 Q464.3844,93.0395 465.0563,93.227 Q465.7281,93.3989 466.4156,93.7426 L465.6031,95.7582 Q464.9781,95.4457 464.4313,95.3207 Q463.9,95.1957 463.4156,95.1957 Q462.2438,95.1957 461.5406,95.727 Q460.8375,96.2582 460.5406,97.2114 Q460.2438,98.1645 460.2438,99.4301 Q460.2438,101.4457 460.9625,102.4145 Q461.6813,103.3676 463.275,103.3676 Q463.8688,103.3676 464.4938,103.2114 Q465.1188,103.0551 465.9469,102.6801 L465.9469,104.8989 Q465.2125,105.2114 464.4156,105.3676 Q463.6344,105.5239 462.8688,105.5239 Z " fill="#000000"/><text fill="#000000" font-family="sans-serif" font-size="14" lengthAdjust="spacing" textLength="84" x="480.6" y="104.034">ExerciseDTO</text><line style="stroke:#181818;stroke-width:0.5;" x1="435" x2="581" y1="114.602" y2="114.602"/><ellipse cx="445" cy="129.6359" fill="none" rx="3" ry="3" style="stroke:#038048;stroke-width:1.0;"/><text fill="#000000" font-family="sans-serif" font-size="14" lengthAdjust="spacing" textLength="62" x="454" y="133.5679">id: String</text><ellipse cx="445" cy="148.7039" fill="none" rx="3" ry="3" style="stroke:#038048;stroke-width:1.0;"/><text fill="#000000" font-family="sans-serif" font-size="14" lengthAdjust="spacing" textLength="122" x="454" y="152.6358">instruction: String</text><ellipse cx="445" cy="167.7718" fill="none" rx="3" ry="3" style="stroke:#038048;stroke-width:1.0;"/><text fill="#000000" font-family="sans-serif" font-size="14" lengthAdjust="spacing" textLength="69" x="454" y="171.7038">set: String</text><line style="stroke:#181818;stroke-width:0.5;" x1="435" x2="581" y1="179.8057" y2="179.8057"/></g></a><!--class ExerciseController--><a href="ExerciseController.html" target="_top" title="ExerciseController.html" xlink:actuate="onRequest" xlink:href="ExerciseController.html" xlink:show="new" xlink:title="ExerciseController.html" xlink:type="simple"><g id="elem_ExerciseController"><rect codeLine="21" fill="#F1F1F1" height="48" id="ExerciseController" rx="2.5" ry="2.5" style="stroke:#181818;stroke-width:0.5;" width="154" x="22" y="111.102"/><ellipse cx="37" cy="127.102" fill="#ADD1B2" rx="11" ry="11" style="stroke:#181818;stroke-width:1.0;"/><path d="M36.4688,134.0239 Q34.7188,134.0239 33.5781,133.2895 Q32.4531,132.5395 31.8906,131.1957 Q31.3438,129.8364 31.3438,128.0395 Q31.3438,126.0082 32,124.5551 Q32.6563,123.102 33.9375,122.3207 Q35.2188,121.5395 37.0938,121.5395 Q37.9844,121.5395 38.6563,121.727 Q39.3281,121.8989 40.0156,122.2426 L39.2031,124.2582 Q38.5781,123.9457 38.0313,123.8207 Q37.5,123.6957 37.0156,123.6957 Q35.8438,123.6957 35.1406,124.227 Q34.4375,124.7582 34.1406,125.7114 Q33.8438,126.6645 33.8438,127.9301 Q33.8438,129.9457 34.5625,130.9145 Q35.2813,131.8676 36.875,131.8676 Q37.4688,131.8676 38.0938,131.7114 Q38.7188,131.5551 39.5469,131.1801 L39.5469,133.3989 Q38.8125,133.7114 38.0156,133.8676 Q37.2344,134.0239 36.4688,134.0239 Z " fill="#000000"/><text fill="#000000" font-family="sans-serif" font-size="14" lengthAdjust="spacing" textLength="122" x="51" y="132.534">ExerciseController</text><line style="stroke:#181818;stroke-width:0.5;" x1="23" x2="175" y1="143.102" y2="143.102"/><line style="stroke:#181818;stroke-width:0.5;" x1="23" x2="175" y1="151.102" y2="151.102"/></g></a><!--class Option--><g id="elem_Option"><rect fill="#F1F1F1" height="48" id="Option" rx="2.5" ry="2.5" style="stroke:#181818;stroke-width:0.5;" width="78" x="322" y="330.602"/><ellipse cx="337" cy="346.602" fill="#ADD1B2" rx="11" ry="11" style="stroke:#181818;stroke-width:1.0;"/><path d="M336.4688,353.5239 Q334.7188,353.5239 333.5781,352.7895 Q332.4531,352.0395 331.8906,350.6957 Q331.3438,349.3364 331.3438,347.5395 Q331.3438,345.5082 332,344.0551 Q332.6563,342.602 333.9375,341.8207 Q335.2188,341.0395 337.0938,341.0395 Q337.9844,341.0395 338.6563,341.227 Q339.3281,341.3989 340.0156,341.7426 L339.2031,343.7582 Q338.5781,343.4457 338.0313,343.3207 Q337.5,343.1957 337.0156,343.1957 Q335.8438,343.1957 335.1406,343.727 Q334.4375,344.2582 334.1406,345.2114 Q333.8438,346.1645 333.8438,347.4301 Q333.8438,349.4457 334.5625,350.4145 Q335.2813,351.3676 336.875,351.3676 Q337.4688,351.3676 338.0938,351.2114 Q338.7188,351.0551 339.5469,350.6801 L339.5469,352.8989 Q338.8125,353.2114 338.0156,353.3676 Q337.2344,353.5239 336.4688,353.5239 Z " fill="#000000"/><text fill="#000000" font-family="sans-serif" font-size="14" lengthAdjust="spacing" textLength="46" x="351" y="352.034">Option</text><line style="stroke:#181818;stroke-width:0.5;" x1="323" x2="399" y1="362.602" y2="362.602"/><line style="stroke:#181818;stroke-width:0.5;" x1="323" x2="399" y1="370.602" y2="370.602"/></g><!--class OptionDTO--><g id="elem_OptionDTO"><rect fill="#F1F1F1" height="48" id="OptionDTO" rx="2.5" ry="2.5" style="stroke:#181818;stroke-width:0.5;" width="107" x="435.5" y="330.602"/><ellipse cx="450.5" cy="346.602" fill="#ADD1B2" rx="11" ry="11" style="stroke:#181818;stroke-width:1.0;"/><path d="M449.9688,353.5239 Q448.2188,353.5239 447.0781,352.7895 Q445.9531,352.0395 445.3906,350.6957 Q444.8438,349.3364 444.8438,347.5395 Q444.8438,345.5082 445.5,344.0551 Q446.1563,342.602 447.4375,341.8207 Q448.7188,341.0395 450.5938,341.0395 Q451.4844,341.0395 452.1563,341.227 Q452.8281,341.3989 453.5156,341.7426 L452.7031,343.7582 Q452.0781,343.4457 451.5313,343.3207 Q451,343.1957 450.5156,343.1957 Q449.3438,343.1957 448.6406,343.727 Q447.9375,344.2582 447.6406,345.2114 Q447.3438,346.1645 447.3438,347.4301 Q447.3438,349.4457 448.0625,350.4145 Q448.7813,351.3676 450.375,351.3676 Q450.9688,351.3676 451.5938,351.2114 Q452.2188,351.0551 453.0469,350.6801 L453.0469,352.8989 Q452.3125,353.2114 451.5156,353.3676 Q450.7344,353.5239 449.9688,353.5239 Z " fill="#000000"/><text fill="#000000" font-family="sans-serif" font-size="14" lengthAdjust="spacing" textLength="75" x="464.5" y="352.034">OptionDTO</text><line style="stroke:#181818;stroke-width:0.5;" x1="436.5" x2="541.5" y1="362.602" y2="362.602"/><line style="stroke:#181818;stroke-width:0.5;" x1="436.5" x2="541.5" y1="370.602" y2="370.602"/></g><!--link Exercise to Option--><g id="link_Exercise_Option"><path codeLine="26" d="M328.1,225.822 C337.92,263.972 347.0728,299.5318 353.5228,324.5618 " fill="none" id="Exercise-to-Option" style="stroke:#181818;stroke-width:1.0;"/><polygon fill="#181818" points="355.02,330.372,356.6476,320.6585,353.7723,325.5302,348.9007,322.6549,355.02,330.372" style="stroke:#181818;stroke-width:1.0;"/><text fill="#000000" font-family="sans-serif" font-size="13" lengthAdjust="spacing" textLength="46" x="340" y="272.499">options</text><text fill="#000000" font-family="sans-serif" font-size="13" lengthAdjust="spacing" textLength="7" x="345.5907" y="318.9724">*</text></g><!--link ExerciseDTO to OptionDTO--><g id="link_ExerciseDTO_OptionDTO"><path codeLine="27" d="M503.5,187.642 C499.55,232.872 494.5014,290.5647 491.5514,324.3847 " fill="none" id="ExerciseDTO-to-OptionDTO" style="stroke:#181818;stroke-width:1.0;"/><polygon fill="#181818" points="491.03,330.362,495.7969,321.7436,491.4645,325.3809,487.8272,321.0484,491.03,330.362" style="stroke:#181818;stroke-width:1.0;"/><text fill="#000000" font-family="sans-serif" font-size="13" lengthAdjust="spacing" textLength="46" x="498" y="272.499">options</text><text fill="#000000" font-family="sans-serif" font-size="13" lengthAdjust="spacing" textLength="7" x="483.6533" y="318.9598">*</text></g><text fill="#888888" font-family="sans-serif" font-size="10" lengthAdjust="spacing" textLength="182" x="204.5" y="411.292">UMLDoclet 2.1.1, PlantUML 1.2023.12</text><!--SRC=[bLB1IWCn4BttAuQ2iDKsK8yvUB4U1AL2zLHw2Ccu1jDaIM8Hn7ztTjErMvf87GYJcVVoCimC0430IASHNaJdWVFHY9BG2FakQeIjzi96PABH33_HInqGlXAdDMb4273N8-jrVsLlSMis6-B2mAvwk9eKyglejQt_HgUGPGcbbatKpbR9JJZid5R7f1hZlQe8IXAde0tHVyXEfinQ5LI-IvrPF2y7pQ6eq1-jyd_gGrbv0etn_6fkdOtU6OD-KDGXULhRNcdlSal1-UyIp6OtCBuSPsdCTQFXF8s8Guh36Rfj2_yXJVHZTOdqmiEhSwrxUNnOE6be-Q_PdCsdy6H8aR9miKCVkl7_0000]--></g></svg>