<?xml version="1.0" encoding="us-ascii" standalone="no"?><svg xmlns="http://www.w3.org/2000/svg" xmlns:xlink="http://www.w3.org/1999/xlink" contentStyleType="text/css" height="418px" preserveAspectRatio="none" style="width:1431px;height:418px;" version="1.1" viewBox="0 0 1431 418" width="1431px" zoomAndPan="magnify"><defs/><g><!--class mirante.api.exercise.set--><a href="mirante/api/exercise/set/package-summary.html" target="_top" title="mirante/api/exercise/set/package-summary.html" xlink:actuate="onRequest" xlink:href="mirante/api/exercise/set/package-summary.html" xlink:show="new" xlink:title="mirante/api/exercise/set/package-summary.html" xlink:type="simple"><g id="elem_mirante.api.exercise.set"><rect codeLine="24" fill="#F1F1F1" height="29.0679" id="mirante.api.exercise.set" rx="2.5" ry="2.5" style="stroke:#181818;stroke-width:0.5;" width="167" x="600.82" y="185"/><text fill="#000000" font-family="sans-serif" font-size="14" lengthAdjust="spacing" textLength="161" x="603.82" y="204.9659">mirante.api.exercise.set</text></g></a><!--class org.springframework.data.jpa.repository--><g id="elem_org.springframework.data.jpa.repository"><rect fill="#F1F1F1" height="29.0679" id="org.springframework.data.jpa.repository" rx="2.5" ry="2.5" style="stroke:#181818;stroke-width:0.5;" width="280" x="610.32" y="363"/><text fill="#000000" font-family="sans-serif" font-size="14" lengthAdjust="spacing" textLength="274" x="613.32" y="382.9659">org.springframework.data.jpa.repository</text></g><!--class mirante.api.course--><a href="mirante/api/course/package-summary.html" target="_top" title="mirante/api/course/package-summary.html" xlink:actuate="onRequest" xlink:href="mirante/api/course/package-summary.html" xlink:show="new" xlink:title="mirante/api/course/package-summary.html" xlink:type="simple"><g id="elem_mirante.api.course"><rect codeLine="26" fill="#F1F1F1" height="29.0679" id="mirante.api.course" rx="2.5" ry="2.5" style="stroke:#181818;stroke-width:0.5;" width="133" x="563.82" y="274"/><text fill="#000000" font-family="sans-serif" font-size="14" lengthAdjust="spacing" textLength="127" x="566.82" y="293.9659">mirante.api.course</text></g></a><!--class mirante.api.exercise.option--><a href="mirante/api/exercise/option/package-summary.html" target="_top" title="mirante/api/exercise/option/package-summary.html" xlink:actuate="onRequest" xlink:href="mirante/api/exercise/option/package-summary.html" xlink:show="new" xlink:title="mirante/api/exercise/option/package-summary.html" xlink:type="simple"><g id="elem_mirante.api.exercise.option"><rect codeLine="28" fill="#F1F1F1" height="29.0679" id="mirante.api.exercise.option" rx="2.5" ry="2.5" style="stroke:#181818;stroke-width:0.5;" width="190" x="556.32" y="7"/><text fill="#000000" font-family="sans-serif" font-size="14" lengthAdjust="spacing" textLength="184" x="559.32" y="26.9659">mirante.api.exercise.option</text></g></a><!--class mirante.api.exercise--><a href="mirante/api/exercise/package-summary.html" target="_top" title="mirante/api/exercise/package-summary.html" xlink:actuate="onRequest" xlink:href="mirante/api/exercise/package-summary.html" xlink:show="new" xlink:title="mirante/api/exercise/package-summary.html" xlink:type="simple"><g id="elem_mirante.api.exercise"><rect codeLine="30" fill="#F1F1F1" height="29.0679" id="mirante.api.exercise" rx="2.5" ry="2.5" style="stroke:#181818;stroke-width:0.5;" width="143" x="579.82" y="96"/><text fill="#000000" font-family="sans-serif" font-size="14" lengthAdjust="spacing" textLength="137" x="582.82" y="115.9659">mirante.api.exercise</text></g></a><!--class mirante.api.account--><a href="mirante/api/account/package-summary.html" target="_top" title="mirante/api/account/package-summary.html" xlink:actuate="onRequest" xlink:href="mirante/api/account/package-summary.html" xlink:show="new" xlink:title="mirante/api/account/package-summary.html" xlink:type="simple"><g id="elem_mirante.api.account"><rect codeLine="32" fill="#F1F1F1" height="29.0679" id="mirante.api.account" rx="2.5" ry="2.5" style="stroke:#181818;stroke-width:0.5;" width="141" x="424.82" y="185"/><text fill="#000000" font-family="sans-serif" font-size="14" lengthAdjust="spacing" textLength="135" x="427.82" y="204.9659">mirante.api.account</text></g></a><!--class org.springframework.security.crypto.argon2--><g id="elem_org.springframework.security.crypto.argon2"><rect fill="#F1F1F1" height="29.0679" id="org.springframework.security.crypto.argon2" rx="2.5" ry="2.5" style="stroke:#181818;stroke-width:0.5;" width="304" x="153.32" y="274"/><text fill="#000000" font-family="sans-serif" font-size="14" lengthAdjust="spacing" textLength="298" x="156.32" y="293.9659">org.springframework.security.crypto.argon2</text></g><!--class mirante.api.result--><a href="mirante/api/result/package-summary.html" target="_top" title="mirante/api/result/package-summary.html" xlink:actuate="onRequest" xlink:href="mirante/api/result/package-summary.html" xlink:show="new" xlink:title="mirante/api/result/package-summary.html" xlink:type="simple"><g id="elem_mirante.api.result"><rect codeLine="34" fill="#F1F1F1" height="29.0679" id="mirante.api.result" rx="2.5" ry="2.5" style="stroke:#181818;stroke-width:0.5;" width="127" x="757.82" y="96"/><text fill="#000000" font-family="sans-serif" font-size="14" lengthAdjust="spacing" textLength="121" x="760.82" y="115.9659">mirante.api.result</text></g></a><!--class mirante.api.event--><a href="mirante/api/event/package-summary.html" target="_top" title="mirante/api/event/package-summary.html" xlink:actuate="onRequest" xlink:href="mirante/api/event/package-summary.html" xlink:show="new" xlink:title="mirante/api/event/package-summary.html" xlink:type="simple"><g id="elem_mirante.api.event"><rect codeLine="36" fill="#F1F1F1" height="29.0679" id="mirante.api.event" rx="2.5" ry="2.5" style="stroke:#181818;stroke-width:0.5;" width="125" x="874.82" y="274"/><text fill="#000000" font-family="sans-serif" font-size="14" lengthAdjust="spacing" textLength="119" x="877.82" y="293.9659">mirante.api.event</text></g></a><!--class mirante.api.security--><a href="mirante/api/security/package-summary.html" target="_top" title="mirante/api/security/package-summary.html" xlink:actuate="onRequest" xlink:href="mirante/api/security/package-summary.html" xlink:show="new" xlink:title="mirante/api/security/package-summary.html" xlink:type="simple"><g id="elem_mirante.api.security"><rect codeLine="38" fill="#F1F1F1" height="29.0679" id="mirante.api.security" rx="2.5" ry="2.5" style="stroke:#181818;stroke-width:0.5;" width="141" x="1194.82" y="7"/><text fill="#000000" font-family="sans-serif" font-size="14" lengthAdjust="spacing" textLength="135" x="1197.82" y="26.9659">mirante.api.security</text></g></a><!--class org.springframework.security.core.userdetails--><g id="elem_org.springframework.security.core.userdetails"><rect fill="#F1F1F1" height="29.0679" id="org.springframework.security.core.userdetails" rx="2.5" ry="2.5" style="stroke:#181818;stroke-width:0.5;" width="318" x="1106.32" y="96"/><text fill="#000000" font-family="sans-serif" font-size="14" lengthAdjust="spacing" textLength="312" x="1109.32" y="115.9659">org.springframework.security.core.userdetails</text></g><!--link mirante.api.exercise.set to org.springframework.data.jpa.repository--><g id="link_mirante.api.exercise.set_org.springframework.data.jpa.repository"><path codeLine="7" d="M690.16,214.24 C696.37,228.94 706.35,253 714.32,274 C726.29,305.57 737.2062,337.4134 743.8462,357.1434 " fill="none" id="mirante.api.exercise.set-to-org.springframework.data.jpa.repository" style="stroke:#181818;stroke-width:1.0;"/><polygon fill="#181818" points="745.76,362.83,746.6804,353.0242,744.1652,358.0912,739.0983,355.576,745.76,362.83" style="stroke:#181818;stroke-width:1.0;"/></g><!--link mirante.api.exercise.set to mirante.api.course--><g id="link_mirante.api.exercise.set_mirante.api.course"><path codeLine="8" d="M675.88,214.09 C665.8,230.34 652.1751,252.2827 642.0351,268.6127 " fill="none" id="mirante.api.exercise.set-to-mirante.api.course" style="stroke:#181818;stroke-width:1.0;"/><polygon fill="#181818" points="638.87,273.71,647.0158,268.1742,641.5076,269.4623,640.2195,263.954,638.87,273.71" style="stroke:#181818;stroke-width:1.0;"/></g><!--link mirante.api.exercise.option to org.springframework.data.jpa.repository--><g id="link_mirante.api.exercise.option_org.springframework.data.jpa.repository"><path codeLine="9" d="M746.4,34.06 C796.65,43.96 857.1,62.26 902.32,96 C977.81,152.32 990.67,183.66 1017.32,274 C1020.96,286.36 1025.13,292.75 1017.32,303 C996.01,330.97 917.8191,349.9294 849.6191,361.9394 " fill="none" id="mirante.api.exercise.option-to-org.springframework.data.jpa.repository" style="stroke:#181818;stroke-width:1.0;"/><polygon fill="#181818" points="843.71,362.98,853.2673,365.3585,848.6342,362.1128,851.8799,357.4797,843.71,362.98" style="stroke:#181818;stroke-width:1.0;"/></g><!--link mirante.api.exercise.option to mirante.api.exercise--><g id="link_mirante.api.exercise.option_mirante.api.exercise"><path codeLine="10" d="M641.76,36.09 C637.52,52.34 636.0155,73.5691 640.2155,89.8991 " fill="none" id="mirante.api.exercise.option-to-mirante.api.exercise" style="stroke:#181818;stroke-width:1.0;"/><polygon fill="#181818" points="641.71,95.71,643.3421,85.9973,640.4646,90.8676,635.5943,87.99,641.71,95.71" style="stroke:#181818;stroke-width:1.0;"/></g><!--link mirante.api.exercise to mirante.api.exercise.option--><g id="link_mirante.api.exercise_mirante.api.exercise.option"><path codeLine="12" d="M661.5,95.71 C665.94,79.38 667.528,58.1233 663.038,41.8733 " fill="none" id="mirante.api.exercise-to-mirante.api.exercise.option" style="stroke:#181818;stroke-width:1.0;"/><polygon fill="#181818" points="661.44,36.09,659.9814,45.8303,662.7716,40.9094,667.6925,43.6996,661.44,36.09" style="stroke:#181818;stroke-width:1.0;"/></g><!--link mirante.api.exercise to mirante.api.exercise.set--><g id="link_mirante.api.exercise_mirante.api.exercise.set"><path codeLine="11" d="M656.47,125.09 C662.64,141.34 670.7603,162.7707 676.9603,179.1007 " fill="none" id="mirante.api.exercise-to-mirante.api.exercise.set" style="stroke:#181818;stroke-width:1.0;"/><polygon fill="#181818" points="679.09,184.71,679.635,174.8762,677.3153,180.0356,672.1559,177.7158,679.09,184.71" style="stroke:#181818;stroke-width:1.0;"/></g><!--link mirante.api.exercise to org.springframework.data.jpa.repository--><g id="link_mirante.api.exercise_org.springframework.data.jpa.repository"><path codeLine="13" d="M579.77,113.96 C409.92,122.21 6,157.3 135.32,303 C166.32,337.93 432.5504,358.9467 604.2704,369.0767 " fill="none" id="mirante.api.exercise-to-org.springframework.data.jpa.repository" style="stroke:#181818;stroke-width:1.0;"/><polygon fill="#181818" points="610.26,369.43,601.5112,364.9069,605.2687,369.1356,601.0401,372.8931,610.26,369.43" style="stroke:#181818;stroke-width:1.0;"/></g><!--link mirante.api.course to org.springframework.data.jpa.repository--><g id="link_mirante.api.course_org.springframework.data.jpa.repository"><path codeLine="14" d="M649.07,303.09 C671.48,319.34 703.9226,342.8578 726.4426,359.1878 " fill="none" id="mirante.api.course-to-org.springframework.data.jpa.repository" style="stroke:#181818;stroke-width:1.0;"/><polygon fill="#181818" points="731.3,362.71,726.3621,354.1884,727.2522,359.7748,721.6658,360.6649,731.3,362.71" style="stroke:#181818;stroke-width:1.0;"/></g><!--link mirante.api.account to org.springframework.security.crypto.argon2--><g id="link_mirante.api.account_org.springframework.security.crypto.argon2"><path codeLine="15" d="M465.63,214.09 C430.04,230.39 376.2053,255.042 340.5653,271.362 " fill="none" id="mirante.api.account-to-org.springframework.security.crypto.argon2" style="stroke:#181818;stroke-width:1.0;"/><polygon fill="#181818" points="335.11,273.86,344.9582,273.7498,339.656,271.7783,341.6275,266.4761,335.11,273.86" style="stroke:#181818;stroke-width:1.0;"/></g><!--link mirante.api.account to mirante.api.course--><g id="link_mirante.api.account_mirante.api.course"><path codeLine="16" d="M516.41,214.09 C541.63,230.34 578.536,254.1307 603.886,270.4607 " fill="none" id="mirante.api.account-to-mirante.api.course" style="stroke:#181818;stroke-width:1.0;"/><polygon fill="#181818" points="608.93,273.71,603.5301,265.4734,604.7266,271.0023,599.1978,272.1988,608.93,273.71" style="stroke:#181818;stroke-width:1.0;"/></g><!--link mirante.api.account to org.springframework.data.jpa.repository--><g id="link_mirante.api.account_org.springframework.data.jpa.repository"><path codeLine="17" d="M498.57,214.14 C504.45,235.91 518.85,278.55 546.32,303 C581.32,334.17 624.7152,350.9206 666.0252,361.4306 " fill="none" id="mirante.api.account-to-org.springframework.data.jpa.repository" style="stroke:#181818;stroke-width:1.0;"/><polygon fill="#181818" points="671.84,362.91,664.1041,356.8144,666.9944,361.6772,662.1316,364.5674,671.84,362.91" style="stroke:#181818;stroke-width:1.0;"/></g><!--link mirante.api.result to mirante.api.exercise.set--><g id="link_mirante.api.result_mirante.api.exercise.set"><path codeLine="18" d="M799.91,125.09 C774.32,141.34 736.8153,165.164 711.0953,181.494 " fill="none" id="mirante.api.result-to-mirante.api.exercise.set" style="stroke:#181818;stroke-width:1.0;"/><polygon fill="#181818" points="706.03,184.71,715.772,183.2628,710.2511,182.03,711.4839,176.5091,706.03,184.71" style="stroke:#181818;stroke-width:1.0;"/></g><!--link mirante.api.result to org.springframework.data.jpa.repository--><g id="link_mirante.api.result_org.springframework.data.jpa.repository"><path codeLine="19" d="M817.7,125.01 C805.55,170.36 767.8333,311.1245 755.5633,356.9045 " fill="none" id="mirante.api.result-to-org.springframework.data.jpa.repository" style="stroke:#181818;stroke-width:1.0;"/><polygon fill="#181818" points="754.01,362.7,760.2036,355.0424,755.3044,357.8705,752.4763,352.9713,754.01,362.7" style="stroke:#181818;stroke-width:1.0;"/></g><!--link mirante.api.event to org.springframework.data.jpa.repository--><g id="link_mirante.api.event_org.springframework.data.jpa.repository"><path codeLine="20" d="M908.1,303.09 C873.07,319.39 820.1498,344.0085 785.0798,360.3285 " fill="none" id="mirante.api.event-to-org.springframework.data.jpa.repository" style="stroke:#181818;stroke-width:1.0;"/><polygon fill="#181818" points="779.64,362.86,789.4874,362.6894,784.1732,360.7505,786.1121,355.4363,779.64,362.86" style="stroke:#181818;stroke-width:1.0;"/></g><!--link mirante.api.security to org.springframework.security.core.userdetails--><g id="link_mirante.api.security_org.springframework.security.core.userdetails"><path codeLine="21" d="M1265.32,36.09 C1265.32,52.34 1265.32,73.38 1265.32,89.71 " fill="none" id="mirante.api.security-to-org.springframework.security.core.userdetails" style="stroke:#181818;stroke-width:1.0;"/><polygon fill="#181818" points="1265.32,95.71,1269.32,86.71,1265.32,90.71,1261.32,86.71,1265.32,95.71" style="stroke:#181818;stroke-width:1.0;"/></g><text fill="#888888" font-family="sans-serif" font-size="10" lengthAdjust="spacing" textLength="182" x="617.66" y="407.7579">UMLDoclet 2.1.1, PlantUML 1.2023.12</text><!--SRC=[hPN1JiCm38RlF8M5X029fTeUW1D7a2OXJjCE8VMwq3IEd7HG8TwTTDcagT2jT9og_d_ysOcT5W30bzewoRA2LwdAWgcskI93386bzT526owWNOa1hAmmQWgViGqASPabYrj_hNC4fLcPWtUiN6XWfT7algjM6DOKvQrUwPWke91E2_n0LjgZQ5DE9lT0N0ZlMDjY5Il5T-9Iv398yUQaO7JaTIobEGqwD1NLxB4_XbpGPFyd_m7hDxyti3UYtT68g5J7yS2ncqtdUHP2gWYn_Jttg6hMeH6A6nT8I2x8pevY1dJyLDOXbJFwseI_jUiWPlI0RV3CmlT7Ek3CYL7K7Zd78BNPtTjhcCVlXYmGZBPbkkFAIE_XikyWBc6ns7bPzBAzbqKlSuasyNLLIMx4EbHckOJFBVYh3vywsmKdTIIoSsTwYqxscKbwwUEmkudkKdVoI6WQroupgMEttuxlZxstuaZWVbYxpBq-21lJ8yEAg7syF3q-KFob1PY9gPZUmTn4QbJXQeFiO-jlRhy1]--></g></svg>