<?xml version="1.0" encoding="us-ascii" standalone="no"?><svg xmlns="http://www.w3.org/2000/svg" xmlns:xlink="http://www.w3.org/1999/xlink" contentStyleType="text/css" height="124px" preserveAspectRatio="none" style="width:315px;height:124px;background:#FFFFFF;" version="1.1" viewBox="0 0 315 124" width="315px" zoomAndPan="magnify"><defs/><g><!--class mirante.api.account.AccountService--><a href="AccountService.html" target="_top" title="AccountService.html" xlink:actuate="onRequest" xlink:href="AccountService.html" xlink:show="new" xlink:title="AccountService.html" xlink:type="simple"><g id="elem_mirante.api.account.AccountService"><rect codeLine="5" fill="#F1F1F1" height="88.8237" id="mirante.api.account.AccountService" rx="2.5" ry="2.5" style="stroke:#181818;stroke-width:0.5;" width="294" x="7" y="7"/><ellipse cx="98.75" cy="28.344" fill="#ADD1B2" rx="11" ry="11" style="stroke:#181818;stroke-width:1.0;"/><path d="M98.2188,35.2658 Q96.4688,35.2658 95.3281,34.5315 Q94.2031,33.7815 93.6406,32.4377 Q93.0938,31.0783 93.0938,29.2815 Q93.0938,27.2502 93.75,25.7971 Q94.4063,24.344 95.6875,23.5627 Q96.9688,22.7815 98.8438,22.7815 Q99.7344,22.7815 100.4063,22.969 Q101.0781,23.1408 101.7656,23.4846 L100.9531,25.5002 Q100.3281,25.1877 99.7813,25.0627 Q99.25,24.9377 98.7656,24.9377 Q97.5938,24.9377 96.8906,25.469 Q96.1875,26.0002 95.8906,26.9533 Q95.5938,27.9065 95.5938,29.1721 Q95.5938,31.1877 96.3125,32.1565 Q97.0313,33.1096 98.625,33.1096 Q99.2188,33.1096 99.8438,32.9533 Q100.4688,32.7971 101.2969,32.4221 L101.2969,34.6408 Q100.5625,34.9533 99.7656,35.1096 Q98.9844,35.2658 98.2188,35.2658 Z " fill="#000000"/><text fill="#000000" font-family="sans-serif" font-size="14" lengthAdjust="spacing" textLength="102" x="119.25" y="26.9659">AccountService</text><text fill="#000000" font-family="sans-serif" font-size="10" lengthAdjust="spacing" textLength="97" x="121.75" y="41.7579">mirante.api.account</text><line style="stroke:#181818;stroke-width:0.5;" x1="8" x2="300" y1="49.6879" y2="49.6879"/><ellipse cx="18" cy="64.7219" fill="#84BE84" rx="3" ry="3" style="stroke:#038048;stroke-width:1.0;"/><text fill="#000000" font-family="sans-serif" font-size="14" lengthAdjust="spacing" textLength="255" x="27" y="68.6538">login(String, String): Optional&lt;String&gt;</text><ellipse cx="18" cy="83.7898" fill="#84BE84" rx="3" ry="3" style="stroke:#038048;stroke-width:1.0;"/><text fill="#000000" font-family="sans-serif" font-size="14" lengthAdjust="spacing" textLength="268" x="27" y="87.7218">findByToken(String): Optional&lt;Account&gt;</text></g></a><text fill="#888888" font-family="sans-serif" font-size="10" lengthAdjust="spacing" textLength="182" x="62.5" y="113.5137">UMLDoclet 2.1.1, PlantUML 1.2023.12</text><!--SRC=[RP1DImD138Rl_efG45eiWokUIbbGUbGKLa-rXp2RxORE9ClCMAZYVtVQgMYbkGIUzyqd042a18AUue2M6XemOD80ea8NMOQUMmBoGzf1n-JQ-9zwIhrcVE3MOOmmcaV-e5brMzzPg- -I6WfRjlGcH-6wzXnG4XaSs60nZG0ZdE7cj0aibwV0zCcxrGe-3nliuyhfccNSfC2odaB9anay3ObLqCqBgNyBEfRsVlUY6_ef-si_pYl-ht8evIq3TAhxzFhui53hyYjlJ6MgAJoxV4McSBcb47ENyUGR]--></g></svg>