<?xml version="1.0" encoding="us-ascii" standalone="no"?><svg xmlns="http://www.w3.org/2000/svg" xmlns:xlink="http://www.w3.org/1999/xlink" contentStyleType="text/css" height="365px" preserveAspectRatio="none" style="width:706px;height:365px;background:#FFFFFF;" version="1.1" viewBox="0 0 706 365" width="706px" zoomAndPan="magnify"><defs/><g><!--cluster mirante.api.account--><g id="cluster_mirante.api.account"><path d="M8.5,6.602 L148.5,6.602 A3.75,3.75 0 0 1 151,9.102 L158,31.6699 L696.5,31.6699 A2.5,2.5 0 0 1 699,34.1699 L699,335.102 A2.5,2.5 0 0 1 696.5,337.602 L8.5,337.602 A2.5,2.5 0 0 1 6,335.102 L6,9.102 A2.5,2.5 0 0 1 8.5,6.602 " fill="none" style="stroke:#000000;stroke-width:1.5;"/><line style="stroke:#000000;stroke-width:1.5;" x1="6" x2="158" y1="31.6699" y2="31.6699"/><text fill="#000000" font-family="sans-serif" font-size="14" font-weight="bold" lengthAdjust="spacing" textLength="139" x="10" y="23.5679">mirante.api.account</text></g><!--class Account--><a href="Account.html" target="_top" title="Account.html" xlink:actuate="onRequest" xlink:href="Account.html" xlink:show="new" xlink:title="Account.html" xlink:type="simple"><g id="elem_Account"><rect codeLine="5" fill="#F1F1F1" height="276.815" id="Account" rx="2.5" ry="2.5" style="stroke:#181818;stroke-width:0.5;" width="331" x="351.5" y="44.602"/><ellipse cx="485.75" cy="60.602" fill="#ADD1B2" rx="11" ry="11" style="stroke:#181818;stroke-width:1.0;"/><path d="M485.2188,67.5239 Q483.4688,67.5239 482.3281,66.7895 Q481.2031,66.0395 480.6406,64.6957 Q480.0938,63.3364 480.0938,61.5395 Q480.0938,59.5082 480.75,58.0551 Q481.4063,56.602 482.6875,55.8207 Q483.9688,55.0395 485.8438,55.0395 Q486.7344,55.0395 487.4063,55.227 Q488.0781,55.3989 488.7656,55.7426 L487.9531,57.7582 Q487.3281,57.4457 486.7813,57.3207 Q486.25,57.1957 485.7656,57.1957 Q484.5938,57.1957 483.8906,57.727 Q483.1875,58.2582 482.8906,59.2114 Q482.5938,60.1645 482.5938,61.4301 Q482.5938,63.4457 483.3125,64.4145 Q484.0313,65.3676 485.625,65.3676 Q486.2188,65.3676 486.8438,65.2114 Q487.4688,65.0551 488.2969,64.6801 L488.2969,66.8989 Q487.5625,67.2114 486.7656,67.3676 Q485.9844,67.5239 485.2188,67.5239 Z " fill="#000000"/><text fill="#000000" font-family="sans-serif" font-size="14" lengthAdjust="spacing" textLength="54" x="506.25" y="66.034">Account</text><line style="stroke:#181818;stroke-width:0.5;" x1="352.5" x2="681.5" y1="76.602" y2="76.602"/><line style="stroke:#181818;stroke-width:0.5;" x1="352.5" x2="681.5" y1="84.602" y2="84.602"/><ellipse cx="362.5" cy="99.6359" fill="#84BE84" rx="3" ry="3" style="stroke:#038048;stroke-width:1.0;"/><text fill="#000000" font-family="sans-serif" font-size="14" lengthAdjust="spacing" textLength="305" x="371.5" y="103.5679">Account(String, String, String, String, Course)</text><ellipse cx="362.5" cy="118.7039" fill="#84BE84" rx="3" ry="3" style="stroke:#038048;stroke-width:1.0;"/><text fill="#000000" font-family="sans-serif" font-size="14" lengthAdjust="spacing" textLength="213" x="371.5" y="122.6358">checkPassword(String): Boolean</text><ellipse cx="362.5" cy="137.7718" fill="#84BE84" rx="3" ry="3" style="stroke:#038048;stroke-width:1.0;"/><text fill="#000000" font-family="sans-serif" font-size="14" lengthAdjust="spacing" textLength="248" x="371.5" y="141.7038">changePassword(String, String): void</text><ellipse cx="362.5" cy="156.8397" fill="#84BE84" rx="3" ry="3" style="stroke:#038048;stroke-width:1.0;"/><text fill="#000000" font-family="sans-serif" font-size="14" lengthAdjust="spacing" textLength="232" x="371.5" y="160.7717">resetPassword(String, String): void</text><ellipse cx="362.5" cy="175.9076" fill="#84BE84" rx="3" ry="3" style="stroke:#038048;stroke-width:1.0;"/><text fill="#000000" font-family="sans-serif" font-size="14" lengthAdjust="spacing" textLength="161" x="371.5" y="179.8396">getRegistration(): String</text><ellipse cx="362.5" cy="194.9755" fill="#84BE84" rx="3" ry="3" style="stroke:#038048;stroke-width:1.0;"/><text fill="#000000" font-family="sans-serif" font-size="14" lengthAdjust="spacing" textLength="187" x="371.5" y="198.9075">setRegistration(String): void</text><ellipse cx="362.5" cy="214.0434" fill="#84BE84" rx="3" ry="3" style="stroke:#038048;stroke-width:1.0;"/><text fill="#000000" font-family="sans-serif" font-size="14" lengthAdjust="spacing" textLength="119" x="371.5" y="217.9754">getName(): String</text><ellipse cx="362.5" cy="233.1114" fill="#84BE84" rx="3" ry="3" style="stroke:#038048;stroke-width:1.0;"/><text fill="#000000" font-family="sans-serif" font-size="14" lengthAdjust="spacing" textLength="145" x="371.5" y="237.0433">setName(String): void</text><ellipse cx="362.5" cy="252.1793" fill="#84BE84" rx="3" ry="3" style="stroke:#038048;stroke-width:1.0;"/><text fill="#000000" font-family="sans-serif" font-size="14" lengthAdjust="spacing" textLength="116" x="371.5" y="256.1113">getEmail(): String</text><ellipse cx="362.5" cy="271.2472" fill="#84BE84" rx="3" ry="3" style="stroke:#038048;stroke-width:1.0;"/><text fill="#000000" font-family="sans-serif" font-size="14" lengthAdjust="spacing" textLength="142" x="371.5" y="275.1792">setEmail(String): void</text><ellipse cx="362.5" cy="290.3151" fill="#84BE84" rx="3" ry="3" style="stroke:#038048;stroke-width:1.0;"/><text fill="#000000" font-family="sans-serif" font-size="14" lengthAdjust="spacing" textLength="132" x="371.5" y="294.2471">getCourse(): Course</text><ellipse cx="362.5" cy="309.383" fill="#84BE84" rx="3" ry="3" style="stroke:#038048;stroke-width:1.0;"/><text fill="#000000" font-family="sans-serif" font-size="14" lengthAdjust="spacing" textLength="158" x="371.5" y="313.315">setCourse(Course): void</text></g></a><!--class AccountService--><a href="AccountService.html" target="_top" title="AccountService.html" xlink:actuate="onRequest" xlink:href="AccountService.html" xlink:show="new" xlink:title="AccountService.html" xlink:type="simple"><g id="elem_AccountService"><rect codeLine="20" fill="#F1F1F1" height="86.1358" id="AccountService" rx="2.5" ry="2.5" style="stroke:#181818;stroke-width:0.5;" width="294" x="22" y="140.102"/><ellipse cx="113.75" cy="156.102" fill="#ADD1B2" rx="11" ry="11" style="stroke:#181818;stroke-width:1.0;"/><path d="M113.2188,163.0239 Q111.4688,163.0239 110.3281,162.2895 Q109.2031,161.5395 108.6406,160.1957 Q108.0938,158.8364 108.0938,157.0395 Q108.0938,155.0082 108.75,153.5551 Q109.4063,152.102 110.6875,151.3207 Q111.9688,150.5395 113.8438,150.5395 Q114.7344,150.5395 115.4063,150.727 Q116.0781,150.8989 116.7656,151.2426 L115.9531,153.2582 Q115.3281,152.9457 114.7813,152.8207 Q114.25,152.6957 113.7656,152.6957 Q112.5938,152.6957 111.8906,153.227 Q111.1875,153.7582 110.8906,154.7114 Q110.5938,155.6645 110.5938,156.9301 Q110.5938,158.9457 111.3125,159.9145 Q112.0313,160.8676 113.625,160.8676 Q114.2188,160.8676 114.8438,160.7114 Q115.4688,160.5551 116.2969,160.1801 L116.2969,162.3989 Q115.5625,162.7114 114.7656,162.8676 Q113.9844,163.0239 113.2188,163.0239 Z " fill="#000000"/><text fill="#000000" font-family="sans-serif" font-size="14" lengthAdjust="spacing" textLength="102" x="134.25" y="161.534">AccountService</text><line style="stroke:#181818;stroke-width:0.5;" x1="23" x2="315" y1="172.102" y2="172.102"/><line style="stroke:#181818;stroke-width:0.5;" x1="23" x2="315" y1="180.102" y2="180.102"/><ellipse cx="33" cy="195.1359" fill="#84BE84" rx="3" ry="3" style="stroke:#038048;stroke-width:1.0;"/><text fill="#000000" font-family="sans-serif" font-size="14" lengthAdjust="spacing" textLength="255" x="42" y="199.0679">login(String, String): Optional&lt;String&gt;</text><ellipse cx="33" cy="214.2039" fill="#84BE84" rx="3" ry="3" style="stroke:#038048;stroke-width:1.0;"/><text fill="#000000" font-family="sans-serif" font-size="14" lengthAdjust="spacing" textLength="268" x="42" y="218.1358">findByToken(String): Optional&lt;Account&gt;</text></g></a><text fill="#888888" font-family="sans-serif" font-size="10" lengthAdjust="spacing" textLength="182" x="255" y="354.292">UMLDoclet 2.1.1, PlantUML 1.2023.12</text><!--SRC=[bLFBQiCm4BpdA_PII6Wmf4TJ0atQMn-XQKyXXqNUACAoraYAIodvzygnsiOEDbIW1xip8p6x0W1mvCCiqQ9d2saw6eKWb2Xob0I5icWy9LYg18NWW_7mrK3g8JGw1tSniTd4KxBtXTvk0nBEndNCZjVUAYEdqBSl-M0TJTfaiIUHhy9r7sopA359OS6i2KqNYqPI1_oZ7qWLgwpDi1Hy-0z1adybgPmFlYasum1gq6sOwy265P-ne06bKtfOuQ50fGSaclomHcD_BTASBaGY89QfetBiwOursKe9-ckI6EZf5SrIcSj2l9IrZQXlcyYyJTefaoq-tpYdCwT_AV7UUVUfnzCgAFIvXHrplRq_FTwpqE5lt2IpP3Q5bGx_84JXgYBhJXN_1W00]--></g></svg>